<svg fill="none" xmlns="http://www.w3.org/2000/svg" viewBox="0 0 90 45.02">
    <path d="M45.66 16.0511C45.9189 17.6527 46.1187 19.4439 46.3488 21.4278C46.5486 23.4101 46.7499 25.4729 46.8922 27.5911C47.036 29.7361 47.2086 31.881 47.3221 34.026C47.4659 36.171 47.5522 38.207 47.6657 40.0803H41.6184C41.5624 37.8548 41.4458 35.465 41.3611 32.8588C41.246 30.251 41.0734 27.6179 40.8449 24.9849C40.415 25.8804 39.9563 26.9135 39.4401 28.0254C38.9527 29.139 38.4077 30.251 37.9491 31.3645C37.4616 32.4781 36.9742 33.538 36.5156 34.5678C36.0569 35.5724 35.6558 36.4411 35.3409 37.174H31.5582C31.2146 36.4411 30.8422 35.5992 30.3835 34.5678C29.9249 33.5632 29.4375 32.4781 28.95 31.3645C28.4626 30.251 27.9464 29.139 27.459 28.0254C26.9716 26.9119 26.4841 25.8804 26.0542 24.9849C25.8241 27.6464 25.6531 30.2526 25.538 32.8588C25.4246 35.465 25.3367 37.8548 25.2807 40.0803H19.2047C19.291 38.1802 19.4348 36.1426 19.5483 34.026C19.6921 31.881 19.8343 29.7092 19.9782 27.5911C20.122 25.4461 20.3234 23.3816 20.5231 21.4278C20.7245 19.4455 20.953 17.6527 21.2103 16.0511H26.6567C27.0866 16.8108 27.6012 17.7617 28.1749 18.8753C28.7487 20.0157 29.3496 21.2098 29.9808 22.5129C30.6105 23.816 31.213 25.146 31.8426 26.5328C32.4739 27.8912 33.0476 29.1927 33.5638 30.3884C34.08 29.1927 34.6537 27.8912 35.2834 26.5328C35.9131 25.1744 36.5156 23.8444 37.1452 22.5129C37.7765 21.2098 38.3502 19.9888 38.9511 18.8753C39.5248 17.7349 40.041 16.8108 40.4709 16.0511H45.6584H45.66ZM57.1825 22.2412C56.0079 22.7309 54.9755 23.4369 54.0869 24.3057C53.2271 25.1744 52.54 26.2058 52.1372 27.3462C51.6786 28.5419 51.45 29.7898 51.45 31.066C51.4213 32.3691 51.6226 33.6454 52.0509 34.8932C52.3945 36.0068 52.997 37.0382 53.828 37.9085C54.6878 38.8041 55.7778 39.4817 56.9524 39.9177C58.3843 40.461 59.9329 40.7043 61.4799 40.6774C62.541 40.6774 63.6006 40.5968 64.633 40.4057C65.4352 40.243 66.2375 40.0266 67.0126 39.7265L66.2391 35.4918C65.5807 35.7635 64.8631 35.9531 64.1471 36.062C63.4599 36.171 62.7424 36.2247 62.0264 36.2247C60.1918 36.2247 58.8733 35.7635 58.1286 34.8663C57.3839 33.9423 57.0099 32.6945 57.0099 31.0376C57.0099 29.4897 57.411 28.2418 58.1861 27.3178C58.9884 26.3669 60.1918 25.9057 61.7979 25.9057C62.4851 25.9057 63.1739 25.9594 63.8339 26.1237C64.406 26.2327 64.951 26.3954 65.496 26.6118L66.6146 22.5113C64.9526 21.8337 63.1467 21.4799 61.3121 21.4799H61.1682C59.821 21.4531 58.4738 21.7247 57.1841 22.2397M71.7127 15.454C71.0255 15.454 70.3367 15.5899 69.707 15.86C69.1045 16.1316 68.5596 16.4855 68.0737 16.893L69.2483 18.4946C69.3346 18.3856 69.4497 18.2782 69.5632 18.1961C69.7358 18.0602 69.9068 17.9513 70.1081 17.8423C70.3383 17.7064 70.5668 17.6243 70.7953 17.5169C71.0542 17.4348 71.3403 17.381 71.5976 17.381C71.9412 17.3542 72.2848 17.4632 72.5724 17.6527C72.8601 17.8707 73.0023 18.2229 72.9736 18.6036C72.9736 18.8216 72.916 19.0111 72.8297 19.2022C72.7434 19.4186 72.5996 19.6366 72.4286 19.7993C72.256 19.9904 72.0563 20.2068 71.8277 20.3964C71.5976 20.6143 71.3691 20.8323 71.1118 21.0755C70.7953 21.4009 70.4246 21.6726 70.1081 21.9996C69.7645 22.2981 69.4785 22.6235 69.2196 22.9757C68.9335 23.3295 68.7322 23.7086 68.5612 24.1161C68.3886 24.5505 68.331 25.0117 68.331 25.4745V25.8552C68.331 25.991 68.331 26.1269 68.3598 26.2627H75.7831V24.3341H70.9967C71.0542 24.1983 71.1389 24.0624 71.2268 23.9266C71.3707 23.7639 71.5129 23.6012 71.6855 23.4101C71.8581 23.2205 72.0291 23.0294 72.2304 22.8667C72.4318 22.704 72.6028 22.5413 72.7466 22.3787C73.0631 22.107 73.3491 21.8084 73.6927 21.5099C74.0076 21.2114 74.2952 20.886 74.5813 20.559C74.8386 20.2605 75.0687 19.9083 75.2109 19.5276C75.3548 19.1738 75.4411 18.7947 75.4411 18.3872C75.4411 17.9797 75.3851 17.5737 75.2109 17.1662C75.0671 16.7856 74.8386 16.4602 74.5238 16.2154C74.1802 15.9437 73.779 15.7273 73.3491 15.6183C72.8617 15.4825 72.3455 15.4003 71.8022 15.4003C71.8309 15.454 71.7734 15.454 71.7159 15.454M20.9818 5.16345V6.76509H23.6762V13.4986H25.7106V6.76509H28.0902V5.16345H20.9818ZM35.8012 5.16345C35.6286 5.6531 35.4576 6.16803 35.2562 6.71138C35.0549 7.28159 34.8263 7.82495 34.6266 8.36672C34.4252 8.91008 34.2254 9.45343 34.0241 9.9415C33.8515 10.458 33.6517 10.8924 33.4791 11.2446C33.3065 10.8908 33.1355 10.4296 32.9342 9.9415C32.7328 9.425 32.533 8.91008 32.3333 8.36672C32.1031 7.82337 31.9034 7.25316 31.702 6.71138C31.5006 6.14118 31.3009 5.62467 31.157 5.16345H28.9788C29.1786 5.67996 29.4087 6.27702 29.6372 6.95621C29.8961 7.6354 30.1822 8.34145 30.497 9.07435C30.8118 9.80724 31.1554 10.5401 31.4719 11.3015C31.8155 12.0344 32.1303 12.7673 32.5043 13.4733V13.5002H34.4252C34.7688 12.7941 35.1124 12.0897 35.4576 11.3283C35.8012 10.5686 36.116 9.83568 36.4037 9.10278C36.7185 8.36988 36.9758 7.66383 37.2635 6.98464C37.5208 6.30545 37.7509 5.70839 37.9507 5.16503H35.8012V5.16345ZM38.9239 5.16345V6.76509H42.6795C42.3359 7.22631 41.9923 7.63382 41.6184 8.12348C41.246 8.61155 40.8736 9.07277 40.5013 9.58927C40.1289 10.0789 39.7853 10.5938 39.4401 11.0835C39.0965 11.5716 38.5787 12.4403 38.5787 12.4403V13.4986H45.3436V11.897H41.1022C41.417 11.4089 41.7606 10.9208 42.1346 10.3759C42.5069 9.85937 42.9081 9.34444 43.282 8.85479C43.6831 8.36672 44.0555 7.90392 44.4279 7.49799C44.7715 7.09047 45.1167 6.73666 45.374 6.46498V5.16187H38.9239V5.16345ZM9.5456 0.603377C8.37098 0.901906 7.28106 1.49897 6.3925 2.34085C5.61901 3.12745 5.07405 4.10517 4.81675 5.16345C4.50192 6.43971 4.35809 7.74281 4.38685 9.04592V15.86C4.41402 17.0004 4.04326 18.1139 3.3257 19.0095C2.63691 19.9051 1.49105 20.3395 0 20.3395V24.7385C1.51982 24.7385 2.63691 25.1997 3.3257 26.0684C4.04166 26.964 4.41402 28.0507 4.38685 29.1643V36.1157C4.35809 37.4188 4.50192 38.722 4.81675 39.9714C5.07564 41.0028 5.64777 41.9805 6.42126 42.7403C7.30982 43.5553 8.39974 44.1255 9.60313 44.3972C11.3227 44.8031 13.0998 44.9942 14.8769 44.9405V40.5147C14.0747 40.5147 13.2724 40.461 12.4702 40.3236C11.8964 40.243 11.3515 39.9982 10.9232 39.646C10.5221 39.319 10.2072 38.8578 10.0634 38.3697C9.86203 37.719 9.77573 37.0129 9.8045 36.3337V29.6539C9.8045 27.8075 9.5456 26.3685 9.02941 25.2281C8.51321 24.0877 7.59589 23.11 6.45003 22.4861C7.56872 21.8353 8.48444 20.8844 9.02941 19.744C9.5456 18.6304 9.8045 17.1647 9.8045 15.2913V8.69368C9.77573 7.98764 9.86203 7.31002 10.0634 6.63083C10.2072 6.14276 10.5221 5.67996 10.9232 5.32772C11.3818 4.97549 11.898 4.7591 12.4702 4.65011C13.2724 4.51427 14.0747 4.45899 14.8769 4.45899V0.0315904H14.0172C12.4414 0.0315904 10.8928 0.222712 9.3746 0.628649L9.5472 0.601797L9.5456 0.603377ZM75.4682 0.0315904H75.1247V4.51111C75.9269 4.51111 76.7292 4.56482 77.5314 4.70223C78.1052 4.78279 78.6501 5.02761 79.08 5.37985C79.4811 5.73366 79.796 6.16803 79.9398 6.68295C80.1412 7.36215 80.2259 8.04134 80.1971 8.74581V15.4256C80.1971 17.2721 80.456 18.7647 80.9722 19.8514C81.5172 20.9918 82.4057 21.9427 83.5516 22.5666C82.4057 23.2174 81.5172 24.1682 80.9722 25.3087C80.456 26.4222 80.1971 27.888 80.1971 29.7345V36.3858C80.2259 37.065 80.1412 37.7695 79.9398 38.4218C79.7976 38.9115 79.4811 39.3459 79.08 39.6981C78.6214 40.0503 78.1052 40.2667 77.5314 40.3757C76.7292 40.5116 75.9269 40.5653 75.1247 40.5653V44.9911C76.9018 45.0448 78.6789 44.8552 80.3985 44.4477C81.6019 44.176 82.6918 43.6058 83.5803 42.7908C84.3842 42.0311 84.9276 41.0802 85.1849 40.0219C85.4997 38.7456 85.6435 37.4694 85.6147 36.1663V29.2417C85.586 28.1281 85.9583 27.043 86.6759 26.1474C87.3919 25.2518 88.509 24.8159 90 24.8159V20.4437C88.4818 20.4437 87.3631 19.9825 86.6759 19.1138C85.9599 18.1913 85.586 17.0778 85.6147 15.9642V9.04118C85.6435 7.73807 85.4709 6.43497 85.1849 5.15872C84.9276 4.10044 84.4114 3.12271 83.6091 2.33611C82.7493 1.49423 81.6594 0.897168 80.456 0.598638C78.9362 0.191122 77.3604 0 75.8134 0H75.326" fill="#00427A"/>
</svg>